<?xml version="1.0" encoding="UTF-8"?>
<svg id="_Слой_2" data-name="Слой 2" xmlns="http://www.w3.org/2000/svg" viewBox="0 0 943.74 543.41">
  <defs>
    <style>
      .cls-1 {
        letter-spacing: -.02em;
      }

      .cls-2 {
        letter-spacing: -.02em;
      }

      .cls-3 {
        letter-spacing: 0em;
      }

      .cls-4 {
        letter-spacing: 0em;
      }

      .cls-5 {
        letter-spacing: -.05em;
      }

      .cls-6 {
        fill: #fff;
        font-family: Montserrat-Regular, Montserrat;
        font-size: 46.93px;
      }

      .cls-7 {
        letter-spacing: -.02em;
      }

      .cls-8 {
        letter-spacing: -.03em;
      }

      .cls-9 {
        letter-spacing: 0em;
      }

      .cls-10 {
        letter-spacing: -.03em;
      }

      .cls-11 {
        letter-spacing: -.02em;
      }

      .cls-12 {
        letter-spacing: 0em;
      }

      .cls-13 {
        letter-spacing: -.03em;
      }

      .cls-14 {
        letter-spacing: -.02em;
      }

      .cls-15 {
        letter-spacing: 0em;
      }

      .cls-16 {
        letter-spacing: -.02em;
      }

      .cls-17 {
        letter-spacing: 0em;
      }

      .cls-18 {
        letter-spacing: -.02em;
      }

      .cls-19 {
        letter-spacing: -.02em;
      }

      .cls-20 {
        letter-spacing: -.03em;
      }

      .cls-21 {
        letter-spacing: -.01em;
      }

      .cls-22 {
        letter-spacing: -.02em;
      }

      .cls-23 {
        letter-spacing: 0em;
      }

      .cls-24 {
        letter-spacing: -.02em;
      }

      .cls-25 {
        letter-spacing: -.03em;
      }

      .cls-26 {
        letter-spacing: -.02em;
      }

      .cls-27 {
        letter-spacing: -.02em;
      }

      .cls-28 {
        letter-spacing: -.01em;
      }

      .cls-29 {
        fill: none;
        stroke: #fff;
        stroke-miterlimit: 10;
        stroke-width: 1.5px;
      }

      .cls-30 {
        letter-spacing: -.01em;
      }

      .cls-31 {
        letter-spacing: 0em;
      }

      .cls-32 {
        letter-spacing: -.02em;
      }

      .cls-33 {
        letter-spacing: 0em;
      }

      .cls-34 {
        letter-spacing: -.02em;
      }

      .cls-35 {
        letter-spacing: 0em;
      }

      .cls-36 {
        letter-spacing: -.02em;
      }

      .cls-37 {
        letter-spacing: -.02em;
      }

      .cls-38 {
        letter-spacing: 0em;
      }
    </style>
  </defs>
  <g id="_Слой_1-2" data-name="Слой 1">
    <text class="cls-6" transform="translate(0 39.89)"><tspan x="0" y="0">МЫ</tspan></text>
    <text class="cls-6" transform="translate(0 112.83)"><tspan x="0" y="0">М</tspan><tspan class="cls-31" x="45.19" y="0">У</tspan><tspan class="cls-4" x="76.92" y="0">ЗЫ</tspan><tspan class="cls-20" x="152.66" y="0">К</tspan><tspan class="cls-4" x="184.1" y="0">АНТЫ</tspan></text>
    <text class="cls-6" transform="translate(424.05 182.73)"><tspan x="0" y="0">А</tspan><tspan class="cls-7" x="34.91" y="0">Р</tspan><tspan class="cls-19" x="67.06" y="0">Х</tspan><tspan x="96.44" y="0">ИТЕ</tspan><tspan class="cls-8" x="193.63" y="0">К</tspan><tspan class="cls-9" x="225.16" y="0">Т</tspan><tspan class="cls-35" x="252.29" y="0">О</tspan><tspan class="cls-9" x="292.22" y="0">Р</tspan><tspan class="cls-35" x="325.07" y="0">Ы</tspan></text>
    <text class="cls-6" transform="translate(4.72 182.73)"><tspan x="0" y="0">ДИЗАЙНЕ</tspan><tspan class="cls-17" x="248.81" y="0">Р</tspan><tspan x="281.66" y="0">Ы</tspan></text>
    <text class="cls-6" transform="translate(0 389.48)"><tspan class="cls-32" x="0" y="0">Х</tspan><tspan class="cls-27" x="29.42" y="0">У</tspan><tspan x="60.3" y="0">Д</tspan><tspan class="cls-7" x="97.56" y="0">О</tspan><tspan class="cls-22" x="136.33" y="0">Ж</tspan><tspan x="182.65" y="0">НИ</tspan><tspan class="cls-19" x="259.84" y="0">К</tspan><tspan x="291.66" y="0">И-ПЕРФО</tspan><tspan class="cls-9" x="534.18" y="0">Р</tspan><tspan class="cls-15" x="567.03" y="0">МАН</tspan><tspan class="cls-1" x="685.67" y="0">С</tspan><tspan x="718.42" y="0">А</tspan></text>
    <text class="cls-6" transform="translate(580.31 459.64)"><tspan x="0" y="0">СЦЕНОГ</tspan><tspan class="cls-5" x="208.64" y="0">Р</tspan><tspan class="cls-9" x="239.85" y="0">А</tspan><tspan x="274.29" y="0">ФЫ</tspan></text>
    <text class="cls-6" transform="translate(.25 459.64)"><tspan class="cls-26" x="0" y="0">С</tspan><tspan class="cls-20" x="32.76" y="0">А</tspan><tspan class="cls-37" x="66.17" y="0">У</tspan><tspan class="cls-30" x="97.38" y="0">Н</tspan><tspan class="cls-19" x="135.39" y="0">Д</tspan><tspan class="cls-38" x="171.52" y="0">-</tspan><tspan x="189.22" y="0">ДИЗАЙНЕ</tspan><tspan class="cls-9" x="438.03" y="0">Р</tspan><tspan class="cls-4" x="470.88" y="0">Ы</tspan></text>
    <text class="cls-6" transform="translate(612.57 39.89)"><tspan class="cls-32" x="0" y="0">Х</tspan><tspan class="cls-18" x="29.42" y="0">У</tspan><tspan x="60.3" y="0">Д</tspan><tspan class="cls-11" x="97.56" y="0">О</tspan><tspan class="cls-22" x="136.33" y="0">Ж</tspan><tspan x="182.65" y="0">НИ</tspan><tspan class="cls-24" x="259.84" y="0">К</tspan><tspan class="cls-15" x="291.66" y="0">И</tspan></text>
    <text class="cls-6" transform="translate(592 112.83)"><tspan x="0" y="0">С</tspan><tspan class="cls-32" x="33.6" y="0">К</tspan><tspan class="cls-18" x="65.46" y="0">У</tspan><tspan x="96.34" y="0">ЛЬП</tspan><tspan class="cls-21" x="205.22" y="0">Т</tspan><tspan class="cls-12" x="232.34" y="0">О</tspan><tspan class="cls-9" x="272.28" y="0">Р</tspan><tspan x="305.13" y="0">Ы</tspan></text>
    <line class="cls-29" x1="98.36" y1="24.8" x2="602.03" y2="24.8"/>
    <line class="cls-29" x1="338.36" y1="90.98" x2="581.96" y2="90.98"/>
    <line class="cls-29" x1="342.29" y1="163.92" x2="411.82" y2="163.92"/>
    <line class="cls-29" x1="803.93" y1="163.92" x2="942.95" y2="163.92"/>
    <line class="cls-29" x1="422.67" y1="236.86" x2="661.87" y2="236.86"/>
    <line class="cls-29" x1="332.01" y1="303.04" x2="483.37" y2="303.04"/>
    <line class="cls-29" x1="765.17" y1="373.77" x2="942.95" y2="373.77"/>
    <line class="cls-29" x1="524.29" y1="442.16" x2="570.3" y2="442.16"/>
    <line class="cls-29" x1="650.31" y1="512.13" x2="752.37" y2="512.13"/>
    <text class="cls-6" transform="translate(.25 250.82)"><tspan class="cls-3" x="0" y="0">С</tspan><tspan x="33.18" y="0">Т</tspan><tspan class="cls-9" x="60.77" y="0">Р</tspan><tspan x="93.62" y="0">И</tspan><tspan class="cls-20" x="132.29" y="0">Т</tspan><tspan class="cls-37" x="158.38" y="0">-</tspan><tspan x="175.6" y="0">А</tspan><tspan class="cls-13" x="210.52" y="0">Р</tspan><tspan x="242.29" y="0">ТИ</tspan><tspan class="cls-23" x="308.55" y="0">С</tspan><tspan x="341.73" y="0">ТЫ</tspan></text>
    <text class="cls-6" transform="translate(669.23 249.8)"><tspan class="cls-32" x="0" y="0">К</tspan><tspan class="cls-37" x="31.86" y="0">У</tspan><tspan class="cls-5" x="63.07" y="0">Р</tspan><tspan class="cls-10" x="94.28" y="0">А</tspan><tspan class="cls-17" x="127.55" y="0">Т</tspan><tspan x="154.68" y="0">О</tspan><tspan class="cls-9" x="194.61" y="0">Р</tspan><tspan class="cls-35" x="227.46" y="0">Ы</tspan></text>
    <text class="cls-6" transform="translate(490.69 320.32)"><tspan x="0" y="0">ИС</tspan><tspan class="cls-16" x="72.27" y="0">К</tspan><tspan class="cls-34" x="104.13" y="0">У</tspan><tspan class="cls-28" x="135.06" y="0">С</tspan><tspan class="cls-3" x="167.96" y="0">С</tspan><tspan x="201.13" y="0">ТВОВЕДЫ</tspan></text>
    <text class="cls-6" transform="translate(759.73 531.12)"><tspan x="0" y="0">П</tspan><tspan class="cls-2" x="38.72" y="0">О</tspan><tspan class="cls-17" x="77.71" y="0">Э</tspan><tspan x="110.38" y="0">ТЫ</tspan></text>
    <text class="cls-6" transform="translate(.25 320.32)"><tspan class="cls-17" x="0" y="0">Р</tspan><tspan class="cls-3" x="32.85" y="0">Е</tspan><tspan class="cls-19" x="63.35" y="0">Ж</tspan><tspan x="109.67" y="0">И</tspan><tspan class="cls-28" x="148.34" y="0">С</tspan><tspan x="181.24" y="0">СЕ</tspan><tspan class="cls-17" x="245.76" y="0">Р</tspan><tspan class="cls-35" x="278.61" y="0">Ы</tspan></text>
    <text class="cls-6" transform="translate(.25 530.12)"><tspan x="0" y="0">Д</tspan><tspan class="cls-30" x="37.26" y="0">И</tspan><tspan x="75.41" y="0">Д</tspan><tspan class="cls-19" x="112.67" y="0">Ж</tspan><tspan x="158.99" y="0">И</tspan><tspan class="cls-25" x="197.66" y="0">Т</tspan><tspan class="cls-33" x="223.61" y="0">А</tspan><tspan class="cls-35" x="258.62" y="0">Л</tspan><tspan class="cls-14" x="295.46" y="0">-</tspan><tspan class="cls-16" x="312.59" y="0">Х</tspan><tspan class="cls-18" x="342.01" y="0">У</tspan><tspan x="372.89" y="0">Д</tspan><tspan class="cls-7" x="410.15" y="0">О</tspan><tspan class="cls-36" x="448.91" y="0">Ж</tspan><tspan x="495.23" y="0">НИ</tspan><tspan class="cls-22" x="572.43" y="0">К</tspan><tspan x="604.25" y="0">И</tspan></text>
  </g>
</svg>